<svg id="BACKGROUND" xmlns="http://www.w3.org/2000/svg" xmlns:xlink="http://www.w3.org/1999/xlink" viewBox="0 0 750 326.77"><defs><style>.cls-1{fill:none;}.cls-2{fill:#e8e6ff;}.cls-3{fill:#e0fcd0;}.cls-4{opacity:0.2;}.cls-5{clip-path:url(#clip-path);}.cls-6{fill:#242c36;}.cls-7{fill:#fff1c5;}.cls-8{fill:#f9e1e6;}</style><clipPath id="clip-path"><polygon class="cls-1" points="155.02 108.08 128.94 153.24 181.09 153.24 155.02 108.08 128.94 153.24 181.09 153.24 155.02 108.08"/></clipPath></defs><path class="cls-2" d="M515-82.26C446-59.67,282.49,11.74,288.9,102.68c5.94,84.53,157.25,166.48,280.15,136.42C724.73,201,810-10.66,758.57-80.43,710.21-146.08,538.07-89.79,515-82.26Z"/><polygon class="cls-3" points="135.09 126.26 145 143.43 154.92 160.61 135.09 160.61 115.25 160.61 125.17 143.43 135.09 126.26"/><g class="cls-4"><g class="cls-5"><path class="cls-6" d="M155.4,170.76a.56.56,0,1,1-.56.56A.56.56,0,0,1,155.4,170.76Z"/><path class="cls-6" d="M156,166.7a.55.55,0,0,1-.5.61.56.56,0,0,1-.12-1.11A.56.56,0,0,1,156,166.7Z"/><path class="cls-6" d="M156,162.14a.56.56,0,0,1-.5.61.55.55,0,0,1-.61-.5.55.55,0,0,1,.49-.61A.56.56,0,0,1,156,162.14Z"/><path class="cls-6" d="M156,153a.57.57,0,0,1-.5.62.56.56,0,1,1,.5-.62Z"/><path class="cls-6" d="M156,157.57a.56.56,0,0,1-.5.62.55.55,0,0,1-.61-.5.56.56,0,0,1,.49-.62A.57.57,0,0,1,156,157.57Z"/><path class="cls-6" d="M159.39,170.76a.56.56,0,1,1-.56.56A.56.56,0,0,1,159.39,170.76Z"/><path class="cls-6" d="M160,166.7a.56.56,0,1,1-.62-.5A.57.57,0,0,1,160,166.7Z"/><path class="cls-6" d="M160,162.14a.56.56,0,0,1-1.12.11.55.55,0,0,1,.5-.61A.56.56,0,0,1,160,162.14Z"/><path class="cls-6" d="M160,153a.58.58,0,0,1-.5.62.57.57,0,0,1-.62-.5.56.56,0,0,1,.5-.62A.57.57,0,0,1,160,153Z"/><path class="cls-6" d="M160,157.57a.57.57,0,0,1-.5.62.56.56,0,0,1-.62-.5.57.57,0,0,1,.5-.62A.58.58,0,0,1,160,157.57Z"/><path class="cls-6" d="M163.63,170.76a.56.56,0,1,1-.56.56A.56.56,0,0,1,163.63,170.76Z"/><path class="cls-6" d="M164.19,166.7a.56.56,0,0,1-1.12.11.56.56,0,0,1,1.12-.11Z"/><path class="cls-6" d="M164.19,162.14a.56.56,0,0,1-1.12.11.56.56,0,0,1,1.12-.11Z"/><path class="cls-6" d="M164.19,153a.56.56,0,1,1-1.12.12.56.56,0,0,1,1.12-.12Z"/><path class="cls-6" d="M164.19,157.57a.56.56,0,1,1-1.12.12.56.56,0,0,1,1.12-.12Z"/><path class="cls-6" d="M167.61,170.76a.56.56,0,1,1-.56.56A.56.56,0,0,1,167.61,170.76Z"/><path class="cls-6" d="M168.17,166.7a.55.55,0,0,1-.5.61.56.56,0,1,1-.11-1.11A.56.56,0,0,1,168.17,166.7Z"/><path class="cls-6" d="M168.17,162.14a.56.56,0,0,1-.5.61.55.55,0,0,1-.61-.5.56.56,0,0,1,1.11-.11Z"/><path class="cls-6" d="M168.17,153a.57.57,0,0,1-.5.62.56.56,0,1,1,.5-.62Z"/><path class="cls-6" d="M168.17,157.57a.56.56,0,0,1-.5.62.55.55,0,0,1-.61-.5.56.56,0,1,1,1.11-.12Z"/><path class="cls-6" d="M171.12,170.76a.56.56,0,1,1-.56.56A.56.56,0,0,1,171.12,170.76Z"/><path class="cls-6" d="M171.68,166.7a.55.55,0,0,1-.5.61.56.56,0,1,1-.11-1.11A.56.56,0,0,1,171.68,166.7Z"/><path class="cls-6" d="M171.68,162.14a.56.56,0,0,1-.5.61.55.55,0,0,1-.61-.5.56.56,0,0,1,1.11-.11Z"/><path class="cls-6" d="M171.68,153a.57.57,0,0,1-.5.62.56.56,0,1,1,.5-.62Z"/><path class="cls-6" d="M171.68,157.57a.56.56,0,0,1-.5.62.55.55,0,0,1-.61-.5.56.56,0,1,1,1.11-.12Z"/><path class="cls-6" d="M175.11,170.76a.56.56,0,1,1-.56.56A.56.56,0,0,1,175.11,170.76Z"/><path class="cls-6" d="M175.67,166.7a.56.56,0,1,1-.62-.5A.57.57,0,0,1,175.67,166.7Z"/><path class="cls-6" d="M175.67,162.14a.56.56,0,0,1-1.12.11.55.55,0,0,1,.5-.61A.56.56,0,0,1,175.67,162.14Z"/><path class="cls-6" d="M175.67,153a.58.58,0,0,1-.5.62.57.57,0,0,1-.62-.5.56.56,0,0,1,.5-.62A.57.57,0,0,1,175.67,153Z"/><path class="cls-6" d="M175.67,157.57a.57.57,0,0,1-.5.62.56.56,0,0,1-.62-.5.57.57,0,0,1,.5-.62A.58.58,0,0,1,175.67,157.57Z"/><path class="cls-6" d="M179.35,170.76a.56.56,0,1,1-.56.56A.56.56,0,0,1,179.35,170.76Z"/><path class="cls-6" d="M179.91,166.7a.56.56,0,0,1-1.12.11.56.56,0,0,1,1.12-.11Z"/><path class="cls-6" d="M179.91,162.14a.56.56,0,0,1-1.12.11.56.56,0,0,1,1.12-.11Z"/><path class="cls-6" d="M179.91,153a.56.56,0,1,1-1.12.12.56.56,0,0,1,1.12-.12Z"/><path class="cls-6" d="M179.91,157.57a.56.56,0,1,1-1.12.12.56.56,0,0,1,1.12-.12Z"/><path class="cls-6" d="M183.33,170.76a.56.56,0,1,1,0,1.12.56.56,0,1,1,0-1.12Z"/><path class="cls-6" d="M183.89,166.7a.55.55,0,0,1-.5.61.56.56,0,1,1-.11-1.11A.56.56,0,0,1,183.89,166.7Z"/><path class="cls-6" d="M183.89,162.14a.56.56,0,0,1-.5.61.55.55,0,0,1-.61-.5.56.56,0,1,1,1.11-.11Z"/><path class="cls-6" d="M183.89,153a.57.57,0,0,1-.5.62.56.56,0,1,1,.5-.62Z"/><path class="cls-6" d="M183.89,157.57a.56.56,0,0,1-.5.62.55.55,0,0,1-.61-.5.56.56,0,1,1,1.11-.12Z"/><path class="cls-6" d="M122.52,170.76a.56.56,0,0,1,0,1.12.56.56,0,1,1,0-1.12Z"/><path class="cls-6" d="M123.07,166.7a.56.56,0,0,1-1.11.11.56.56,0,0,1,.5-.61A.55.55,0,0,1,123.07,166.7Z"/><path class="cls-6" d="M123.07,162.14a.55.55,0,0,1-.5.61.56.56,0,0,1-.61-.5.55.55,0,0,1,.5-.61A.55.55,0,0,1,123.07,162.14Z"/><path class="cls-6" d="M123.07,153a.56.56,0,1,1-.61-.5A.55.55,0,0,1,123.07,153Z"/><path class="cls-6" d="M123.07,157.57a.56.56,0,1,1-1.11.12.57.57,0,0,1,.5-.62A.56.56,0,0,1,123.07,157.57Z"/><path class="cls-6" d="M126.5,170.76a.56.56,0,1,1-.56.56A.56.56,0,0,1,126.5,170.76Z"/><path class="cls-6" d="M127.06,166.7a.56.56,0,0,1-1.12.11.56.56,0,0,1,1.12-.11Z"/><path class="cls-6" d="M127.06,162.14a.56.56,0,0,1-1.12.11.56.56,0,0,1,1.12-.11Z"/><path class="cls-6" d="M127.06,153a.56.56,0,0,1-1.12.12.56.56,0,1,1,1.12-.12Z"/><path class="cls-6" d="M127.06,157.57a.56.56,0,0,1-1.12.12.56.56,0,1,1,1.12-.12Z"/><path class="cls-6" d="M130.74,170.76a.56.56,0,1,1-.56.56A.56.56,0,0,1,130.74,170.76Z"/><path class="cls-6" d="M131.3,166.7a.55.55,0,0,1-.5.61.56.56,0,1,1,.5-.61Z"/><path class="cls-6" d="M131.3,162.14a.56.56,0,0,1-.5.61.57.57,0,0,1-.62-.5.56.56,0,0,1,1.12-.11Z"/><path class="cls-6" d="M131.3,153a.57.57,0,0,1-.5.62.58.58,0,0,1-.62-.5.57.57,0,0,1,.5-.62A.56.56,0,0,1,131.3,153Z"/><path class="cls-6" d="M131.3,157.57a.56.56,0,0,1-.5.62.57.57,0,0,1-.62-.5.58.58,0,0,1,.5-.62A.57.57,0,0,1,131.3,157.57Z"/><path class="cls-6" d="M134.73,170.76a.56.56,0,1,1-.56.56A.56.56,0,0,1,134.73,170.76Z"/><path class="cls-6" d="M135.28,166.7a.56.56,0,0,1-1.11.11.56.56,0,0,1,.5-.61A.55.55,0,0,1,135.28,166.7Z"/><path class="cls-6" d="M135.28,162.14a.55.55,0,0,1-.5.61.56.56,0,0,1-.61-.5.55.55,0,0,1,.5-.61A.55.55,0,0,1,135.28,162.14Z"/><path class="cls-6" d="M135.28,153a.56.56,0,1,1-.61-.5A.55.55,0,0,1,135.28,153Z"/><path class="cls-6" d="M135.28,157.57a.56.56,0,1,1-1.11.12.57.57,0,0,1,.5-.62A.56.56,0,0,1,135.28,157.57Z"/><path class="cls-6" d="M138.24,170.76a.56.56,0,1,1-.56.56A.56.56,0,0,1,138.24,170.76Z"/><path class="cls-6" d="M138.79,166.7a.56.56,0,0,1-1.11.11.56.56,0,0,1,.5-.61A.55.55,0,0,1,138.79,166.7Z"/><path class="cls-6" d="M138.79,162.14a.55.55,0,0,1-.5.61.56.56,0,0,1-.61-.5.55.55,0,0,1,.5-.61A.55.55,0,0,1,138.79,162.14Z"/><path class="cls-6" d="M138.79,153a.56.56,0,1,1-.61-.5A.55.55,0,0,1,138.79,153Z"/><path class="cls-6" d="M138.79,157.57a.56.56,0,1,1-1.11.12.57.57,0,0,1,.5-.62A.56.56,0,0,1,138.79,157.57Z"/><path class="cls-6" d="M142.22,170.76a.56.56,0,1,1-.56.56A.56.56,0,0,1,142.22,170.76Z"/><path class="cls-6" d="M142.78,166.7a.55.55,0,0,1-.5.61.56.56,0,1,1,.5-.61Z"/><path class="cls-6" d="M142.78,162.14a.56.56,0,0,1-.5.61.57.57,0,0,1-.62-.5.56.56,0,0,1,1.12-.11Z"/><path class="cls-6" d="M142.78,153a.57.57,0,0,1-.5.62.58.58,0,0,1-.62-.5.56.56,0,1,1,1.12-.12Z"/><path class="cls-6" d="M142.78,157.57a.56.56,0,0,1-.5.62.56.56,0,1,1,.5-.62Z"/><path class="cls-6" d="M146.46,170.76a.56.56,0,1,1-.56.56A.56.56,0,0,1,146.46,170.76Z"/><path class="cls-6" d="M147,166.7a.55.55,0,0,1-.5.61.56.56,0,1,1,.5-.61Z"/><path class="cls-6" d="M147,162.14a.56.56,0,0,1-.5.61.57.57,0,0,1-.62-.5.56.56,0,0,1,1.12-.11Z"/><path class="cls-6" d="M147,153a.57.57,0,0,1-.5.62.58.58,0,0,1-.62-.5.57.57,0,0,1,.5-.62A.56.56,0,0,1,147,153Z"/><path class="cls-6" d="M147,157.57a.56.56,0,0,1-.5.62.57.57,0,0,1-.62-.5.58.58,0,0,1,.5-.62A.57.57,0,0,1,147,157.57Z"/><path class="cls-6" d="M150.45,170.76a.56.56,0,1,1-.56.56A.56.56,0,0,1,150.45,170.76Z"/><path class="cls-6" d="M151,166.7a.55.55,0,0,1-.49.61.56.56,0,1,1,.49-.61Z"/><path class="cls-6" d="M151,162.14a.55.55,0,0,1-.49.61.56.56,0,0,1-.62-.5.55.55,0,0,1,.5-.61A.55.55,0,0,1,151,162.14Z"/><path class="cls-6" d="M151,153a.56.56,0,0,1-.49.62.57.57,0,0,1-.62-.5.56.56,0,0,1,.5-.62A.55.55,0,0,1,151,153Z"/><path class="cls-6" d="M151,157.57a.56.56,0,0,1-.49.62.56.56,0,0,1-.62-.5.57.57,0,0,1,.5-.62A.56.56,0,0,1,151,157.57Z"/><path class="cls-6" d="M155.4,148.16a.56.56,0,1,1-.56.56A.56.56,0,0,1,155.4,148.16Z"/><path class="cls-6" d="M156,144.1a.57.57,0,0,1-.5.62.56.56,0,0,1-.12-1.12A.56.56,0,0,1,156,144.1Z"/><path class="cls-6" d="M156,139.54a.55.55,0,0,1-.5.61.56.56,0,0,1-.12-1.11A.56.56,0,0,1,156,139.54Z"/><path class="cls-6" d="M156,130.41a.56.56,0,0,1-.5.62.55.55,0,0,1-.61-.5.56.56,0,1,1,1.11-.12Z"/><path class="cls-6" d="M156,135a.56.56,0,0,1-.5.61.55.55,0,0,1-.61-.5.55.55,0,0,1,.49-.61A.56.56,0,0,1,156,135Z"/><circle class="cls-6" cx="159.39" cy="148.72" r="0.56"/><path class="cls-6" d="M160,144.1a.58.58,0,0,1-.5.62.56.56,0,1,1-.12-1.12A.57.57,0,0,1,160,144.1Z"/><path class="cls-6" d="M160,139.54a.56.56,0,1,1-.62-.5A.57.57,0,0,1,160,139.54Z"/><path class="cls-6" d="M160,130.41a.57.57,0,0,1-.5.62.56.56,0,0,1-.62-.5.56.56,0,1,1,1.12-.12Z"/><path class="cls-6" d="M160,135a.56.56,0,0,1-1.12.11.55.55,0,0,1,.5-.61A.56.56,0,0,1,160,135Z"/><circle class="cls-6" cx="163.63" cy="148.72" r="0.56"/><path class="cls-6" d="M164.19,144.1a.57.57,0,0,1-.5.62.56.56,0,1,1,.5-.62Z"/><path class="cls-6" d="M164.19,139.54a.56.56,0,0,1-1.12.11.56.56,0,0,1,1.12-.11Z"/><path class="cls-6" d="M164.19,130.41a.56.56,0,1,1-1.12.12.57.57,0,0,1,.5-.62A.56.56,0,0,1,164.19,130.41Z"/><path class="cls-6" d="M164.19,135a.56.56,0,0,1-1.12.11.56.56,0,0,1,1.12-.11Z"/><path class="cls-6" d="M167.61,148.16a.56.56,0,1,1-.56.56A.56.56,0,0,1,167.61,148.16Z"/><path class="cls-6" d="M168.17,144.1a.57.57,0,0,1-.5.62.56.56,0,0,1-.11-1.12A.56.56,0,0,1,168.17,144.1Z"/><path class="cls-6" d="M168.17,139.54a.55.55,0,0,1-.5.61.56.56,0,0,1-.11-1.11A.56.56,0,0,1,168.17,139.54Z"/><path class="cls-6" d="M168.17,130.41a.56.56,0,0,1-.5.62.55.55,0,0,1-.61-.5.56.56,0,1,1,1.11-.12Z"/><path class="cls-6" d="M168.17,135a.56.56,0,0,1-.5.61.55.55,0,0,1-.61-.5.56.56,0,1,1,1.11-.11Z"/><path class="cls-6" d="M171.12,148.16a.56.56,0,1,1-.56.56A.56.56,0,0,1,171.12,148.16Z"/><path class="cls-6" d="M171.68,144.1a.57.57,0,0,1-.5.62.56.56,0,0,1-.11-1.12A.56.56,0,0,1,171.68,144.1Z"/><path class="cls-6" d="M171.68,139.54a.55.55,0,0,1-.5.61.56.56,0,0,1-.11-1.11A.56.56,0,0,1,171.68,139.54Z"/><path class="cls-6" d="M171.68,130.41a.56.56,0,0,1-.5.62.55.55,0,0,1-.61-.5.56.56,0,1,1,1.11-.12Z"/><path class="cls-6" d="M171.68,135a.56.56,0,0,1-.5.61.55.55,0,0,1-.61-.5.56.56,0,0,1,1.11-.11Z"/><circle class="cls-6" cx="175.11" cy="148.72" r="0.56"/><path class="cls-6" d="M175.67,144.1a.58.58,0,0,1-.5.62.56.56,0,0,1-.12-1.12A.57.57,0,0,1,175.67,144.1Z"/><path class="cls-6" d="M175.67,139.54a.56.56,0,1,1-.62-.5A.57.57,0,0,1,175.67,139.54Z"/><path class="cls-6" d="M175.67,130.41a.57.57,0,0,1-.5.62.56.56,0,0,1-.62-.5.56.56,0,0,1,1.12-.12Z"/><path class="cls-6" d="M175.67,135a.56.56,0,0,1-1.12.11.55.55,0,0,1,.5-.61A.56.56,0,0,1,175.67,135Z"/><circle class="cls-6" cx="179.35" cy="148.72" r="0.56"/><path class="cls-6" d="M179.91,144.1a.57.57,0,0,1-.5.62.56.56,0,1,1,.5-.62Z"/><path class="cls-6" d="M179.91,139.54a.56.56,0,0,1-1.12.11.56.56,0,0,1,1.12-.11Z"/><path class="cls-6" d="M179.91,130.41a.56.56,0,1,1-1.12.12.57.57,0,0,1,.5-.62A.56.56,0,0,1,179.91,130.41Z"/><path class="cls-6" d="M179.91,135a.56.56,0,0,1-1.12.11.56.56,0,0,1,1.12-.11Z"/><path class="cls-6" d="M183.33,148.16a.56.56,0,1,1,0,1.12.56.56,0,0,1,0-1.12Z"/><path class="cls-6" d="M183.89,144.1a.57.57,0,0,1-.5.62.56.56,0,0,1-.11-1.12A.56.56,0,0,1,183.89,144.1Z"/><path class="cls-6" d="M183.89,139.54a.55.55,0,0,1-.5.61.56.56,0,0,1-.11-1.11A.56.56,0,0,1,183.89,139.54Z"/><path class="cls-6" d="M183.89,130.41a.56.56,0,0,1-.5.62.55.55,0,0,1-.61-.5.56.56,0,1,1,1.11-.12Z"/><path class="cls-6" d="M183.89,135a.56.56,0,0,1-.5.61.55.55,0,0,1-.61-.5.56.56,0,1,1,1.11-.11Z"/><path class="cls-6" d="M122.52,148.16a.56.56,0,1,1,0,1.12.56.56,0,1,1,0-1.12Z"/><path class="cls-6" d="M123.07,144.1a.56.56,0,1,1-.61-.5A.55.55,0,0,1,123.07,144.1Z"/><path class="cls-6" d="M123.07,139.54a.56.56,0,1,1-1.11.11.56.56,0,0,1,.5-.61A.55.55,0,0,1,123.07,139.54Z"/><path class="cls-6" d="M123.07,130.41a.56.56,0,1,1-1.11.12.57.57,0,0,1,.5-.62A.55.55,0,0,1,123.07,130.41Z"/><path class="cls-6" d="M123.07,135a.55.55,0,0,1-.5.61.56.56,0,0,1-.61-.5.55.55,0,0,1,.5-.61A.55.55,0,0,1,123.07,135Z"/><path class="cls-6" d="M126.5,148.16a.56.56,0,1,1-.56.56A.56.56,0,0,1,126.5,148.16Z"/><path class="cls-6" d="M127.06,144.1a.57.57,0,0,1-.5.62.56.56,0,1,1,.5-.62Z"/><path class="cls-6" d="M127.06,139.54a.56.56,0,0,1-1.12.11.56.56,0,0,1,1.12-.11Z"/><path class="cls-6" d="M127.06,130.41a.56.56,0,1,1-1.12.12.57.57,0,0,1,.5-.62A.56.56,0,0,1,127.06,130.41Z"/><path class="cls-6" d="M127.06,135a.56.56,0,0,1-1.12.11.56.56,0,0,1,1.12-.11Z"/><path class="cls-6" d="M130.74,148.16a.56.56,0,1,1-.56.56A.56.56,0,0,1,130.74,148.16Z"/><path class="cls-6" d="M131.3,144.1a.56.56,0,1,1-.62-.5A.56.56,0,0,1,131.3,144.1Z"/><path class="cls-6" d="M131.3,139.54a.55.55,0,0,1-.5.61.56.56,0,1,1,.5-.61Z"/><path class="cls-6" d="M131.3,130.41a.56.56,0,0,1-.5.62.57.57,0,0,1-.62-.5.58.58,0,0,1,.5-.62A.56.56,0,0,1,131.3,130.41Z"/><path class="cls-6" d="M131.3,135a.56.56,0,0,1-.5.61.57.57,0,0,1-.62-.5.56.56,0,0,1,1.12-.11Z"/><circle class="cls-6" cx="134.73" cy="148.72" r="0.56"/><path class="cls-6" d="M135.28,144.1a.56.56,0,1,1-.61-.5A.55.55,0,0,1,135.28,144.1Z"/><path class="cls-6" d="M135.28,139.54a.56.56,0,1,1-1.11.11.56.56,0,0,1,.5-.61A.55.55,0,0,1,135.28,139.54Z"/><path class="cls-6" d="M135.28,130.41a.56.56,0,1,1-1.11.12.57.57,0,0,1,.5-.62A.55.55,0,0,1,135.28,130.41Z"/><path class="cls-6" d="M135.28,135a.55.55,0,0,1-.5.61.56.56,0,0,1-.61-.5.55.55,0,0,1,.5-.61A.55.55,0,0,1,135.28,135Z"/><path class="cls-6" d="M138.24,148.16a.56.56,0,1,1-.56.56A.56.56,0,0,1,138.24,148.16Z"/><path class="cls-6" d="M138.79,144.1a.56.56,0,1,1-.61-.5A.55.55,0,0,1,138.79,144.1Z"/><path class="cls-6" d="M138.79,139.54a.56.56,0,1,1-1.11.11.56.56,0,0,1,.5-.61A.55.55,0,0,1,138.79,139.54Z"/><path class="cls-6" d="M138.79,130.41a.56.56,0,1,1-1.11.12.57.57,0,0,1,.5-.62A.55.55,0,0,1,138.79,130.41Z"/><path class="cls-6" d="M138.79,135a.55.55,0,0,1-.5.61.56.56,0,0,1-.61-.5.55.55,0,0,1,.5-.61A.55.55,0,0,1,138.79,135Z"/><path class="cls-6" d="M142.22,148.16a.56.56,0,1,1-.56.56A.56.56,0,0,1,142.22,148.16Z"/><path class="cls-6" d="M142.78,144.1a.56.56,0,1,1-1.12.12.56.56,0,0,1,1.12-.12Z"/><path class="cls-6" d="M142.78,139.54a.55.55,0,0,1-.5.61.56.56,0,1,1,.5-.61Z"/><path class="cls-6" d="M142.78,130.41a.56.56,0,0,1-.5.62.56.56,0,1,1-.12-1.12A.56.56,0,0,1,142.78,130.41Z"/><path class="cls-6" d="M142.78,135a.56.56,0,0,1-.5.61.57.57,0,0,1-.62-.5.56.56,0,0,1,1.12-.11Z"/><path class="cls-6" d="M146.46,148.16a.56.56,0,1,1-.56.56A.56.56,0,0,1,146.46,148.16Z"/><path class="cls-6" d="M147,144.1a.56.56,0,1,1-.62-.5A.56.56,0,0,1,147,144.1Z"/><path class="cls-6" d="M147,139.54a.55.55,0,0,1-.5.61.56.56,0,1,1,.5-.61Z"/><path class="cls-6" d="M147,130.41a.56.56,0,0,1-.5.62.57.57,0,0,1-.62-.5.58.58,0,0,1,.5-.62A.56.56,0,0,1,147,130.41Z"/><path class="cls-6" d="M147,135a.56.56,0,0,1-.5.61.57.57,0,0,1-.62-.5A.56.56,0,0,1,147,135Z"/><circle class="cls-6" cx="150.45" cy="148.72" r="0.56"/><path class="cls-6" d="M151,144.1a.56.56,0,1,1-.61-.5A.55.55,0,0,1,151,144.1Z"/><path class="cls-6" d="M151,139.54a.55.55,0,0,1-.49.61.56.56,0,1,1,.49-.61Z"/><path class="cls-6" d="M151,130.41a.56.56,0,0,1-.49.62.56.56,0,0,1-.62-.5.57.57,0,0,1,.5-.62A.55.55,0,0,1,151,130.41Z"/><path class="cls-6" d="M151,135a.55.55,0,0,1-.49.61.56.56,0,0,1-.62-.5.55.55,0,0,1,.5-.61A.55.55,0,0,1,151,135Z"/><path class="cls-6" d="M155.4,125.76a.56.56,0,1,1-.56.56A.56.56,0,0,1,155.4,125.76Z"/><path class="cls-6" d="M156,121.7a.55.55,0,0,1-.5.61.56.56,0,0,1-.12-1.11A.56.56,0,0,1,156,121.7Z"/><path class="cls-6" d="M156,117.14a.56.56,0,0,1-.5.61.55.55,0,0,1-.61-.5.55.55,0,0,1,.49-.61A.56.56,0,0,1,156,117.14Z"/><path class="cls-6" d="M156,108a.57.57,0,0,1-.5.62.56.56,0,1,1,.5-.62Z"/><path class="cls-6" d="M156,112.57a.56.56,0,0,1-.5.62.55.55,0,0,1-.61-.5.56.56,0,1,1,1.11-.12Z"/><circle class="cls-6" cx="159.39" cy="126.32" r="0.56"/><path class="cls-6" d="M160,121.7a.56.56,0,1,1-.62-.5A.57.57,0,0,1,160,121.7Z"/><path class="cls-6" d="M160,117.14a.56.56,0,0,1-1.12.11.55.55,0,0,1,.5-.61A.56.56,0,0,1,160,117.14Z"/><path class="cls-6" d="M160,108a.58.58,0,0,1-.5.62.57.57,0,0,1-.62-.5.56.56,0,0,1,.5-.62A.57.57,0,0,1,160,108Z"/><path class="cls-6" d="M160,112.57a.57.57,0,0,1-.5.62.56.56,0,0,1-.62-.5.56.56,0,0,1,1.12-.12Z"/><circle class="cls-6" cx="163.63" cy="126.32" r="0.56"/><path class="cls-6" d="M164.19,121.7a.56.56,0,0,1-1.12.11.56.56,0,0,1,1.12-.11Z"/><path class="cls-6" d="M164.19,117.14a.56.56,0,0,1-1.12.11.56.56,0,0,1,1.12-.11Z"/><path class="cls-6" d="M164.19,108a.56.56,0,0,1-1.12.12.56.56,0,1,1,1.12-.12Z"/><path class="cls-6" d="M164.19,112.57a.56.56,0,1,1-1.12.12.57.57,0,0,1,.5-.62A.56.56,0,0,1,164.19,112.57Z"/><path class="cls-6" d="M167.61,125.76a.56.56,0,1,1-.56.56A.56.56,0,0,1,167.61,125.76Z"/><path class="cls-6" d="M168.17,121.7a.55.55,0,0,1-.5.61.56.56,0,0,1-.11-1.11A.56.56,0,0,1,168.17,121.7Z"/><path class="cls-6" d="M168.17,117.14a.56.56,0,0,1-.5.61.55.55,0,0,1-.61-.5.56.56,0,1,1,1.11-.11Z"/><path class="cls-6" d="M168.17,108a.57.57,0,0,1-.5.62.56.56,0,1,1,.5-.62Z"/><path class="cls-6" d="M168.17,112.57a.56.56,0,0,1-.5.62.55.55,0,0,1-.61-.5.56.56,0,1,1,1.11-.12Z"/><path class="cls-6" d="M171.12,125.76a.56.56,0,1,1-.56.56A.56.56,0,0,1,171.12,125.76Z"/><path class="cls-6" d="M171.68,121.7a.55.55,0,0,1-.5.61.56.56,0,0,1-.11-1.11A.56.56,0,0,1,171.68,121.7Z"/><path class="cls-6" d="M171.68,117.14a.56.56,0,0,1-.5.61.55.55,0,0,1-.61-.5.56.56,0,1,1,1.11-.11Z"/><path class="cls-6" d="M171.68,108a.57.57,0,0,1-.5.62.56.56,0,1,1,.5-.62Z"/><path class="cls-6" d="M171.68,112.57a.56.56,0,0,1-.5.62.55.55,0,0,1-.61-.5.56.56,0,1,1,1.11-.12Z"/><circle class="cls-6" cx="175.11" cy="126.32" r="0.56"/><path class="cls-6" d="M175.67,121.7a.56.56,0,1,1-.62-.5A.57.57,0,0,1,175.67,121.7Z"/><path class="cls-6" d="M175.67,117.14a.56.56,0,0,1-1.12.11.55.55,0,0,1,.5-.61A.56.56,0,0,1,175.67,117.14Z"/><path class="cls-6" d="M175.67,108a.58.58,0,0,1-.5.62.57.57,0,0,1-.62-.5.56.56,0,0,1,.5-.62A.57.57,0,0,1,175.67,108Z"/><path class="cls-6" d="M175.67,112.57a.57.57,0,0,1-.5.62.56.56,0,0,1-.62-.5.56.56,0,0,1,1.12-.12Z"/><circle class="cls-6" cx="179.35" cy="126.32" r="0.56"/><path class="cls-6" d="M179.91,121.7a.56.56,0,0,1-1.12.11.56.56,0,0,1,1.12-.11Z"/><path class="cls-6" d="M179.91,117.14a.56.56,0,0,1-1.12.11.56.56,0,0,1,1.12-.11Z"/><path class="cls-6" d="M179.91,108a.56.56,0,1,1-1.12.12.56.56,0,0,1,1.12-.12Z"/><path class="cls-6" d="M179.91,112.57a.56.56,0,1,1-1.12.12.57.57,0,0,1,.5-.62A.56.56,0,0,1,179.91,112.57Z"/><path class="cls-6" d="M183.33,125.76a.56.56,0,1,1,0,1.12.56.56,0,1,1,0-1.12Z"/><path class="cls-6" d="M183.89,121.7a.55.55,0,0,1-.5.61.56.56,0,0,1-.11-1.11A.56.56,0,0,1,183.89,121.7Z"/><path class="cls-6" d="M183.89,117.14a.56.56,0,0,1-.5.61.55.55,0,0,1-.61-.5.56.56,0,1,1,1.11-.11Z"/><path class="cls-6" d="M183.89,108a.57.57,0,0,1-.5.62.56.56,0,1,1,.5-.62Z"/><path class="cls-6" d="M183.89,112.57a.56.56,0,0,1-.5.62.55.55,0,0,1-.61-.5.56.56,0,1,1,1.11-.12Z"/><path class="cls-6" d="M122.52,125.76a.56.56,0,0,1,0,1.12.56.56,0,1,1,0-1.12Z"/><path class="cls-6" d="M123.07,121.7a.56.56,0,0,1-1.11.11.56.56,0,0,1,.5-.61A.55.55,0,0,1,123.07,121.7Z"/><path class="cls-6" d="M123.07,117.14a.55.55,0,0,1-.5.61.56.56,0,0,1-.61-.5.55.55,0,0,1,.5-.61A.55.55,0,0,1,123.07,117.14Z"/><path class="cls-6" d="M123.07,108a.56.56,0,1,1-.61-.5A.55.55,0,0,1,123.07,108Z"/><path class="cls-6" d="M123.07,112.57a.56.56,0,1,1-1.11.12.57.57,0,0,1,.5-.62A.55.55,0,0,1,123.07,112.57Z"/><path class="cls-6" d="M126.5,125.76a.56.56,0,1,1-.56.56A.56.56,0,0,1,126.5,125.76Z"/><path class="cls-6" d="M127.06,121.7a.56.56,0,0,1-1.12.11.56.56,0,0,1,1.12-.11Z"/><path class="cls-6" d="M127.06,117.14a.56.56,0,0,1-1.12.11.56.56,0,0,1,1.12-.11Z"/><path class="cls-6" d="M127.06,108a.56.56,0,0,1-1.12.12.56.56,0,1,1,1.12-.12Z"/><path class="cls-6" d="M127.06,112.57a.56.56,0,1,1-1.12.12.57.57,0,0,1,.5-.62A.56.56,0,0,1,127.06,112.57Z"/><path class="cls-6" d="M130.74,125.76a.56.56,0,1,1-.56.56A.56.56,0,0,1,130.74,125.76Z"/><path class="cls-6" d="M131.3,121.7a.55.55,0,0,1-.5.61.56.56,0,1,1,.5-.61Z"/><path class="cls-6" d="M131.3,117.14a.56.56,0,0,1-.5.61.57.57,0,0,1-.62-.5.56.56,0,0,1,1.12-.11Z"/><path class="cls-6" d="M131.3,108a.57.57,0,0,1-.5.62.58.58,0,0,1-.62-.5.57.57,0,0,1,.5-.62A.56.56,0,0,1,131.3,108Z"/><path class="cls-6" d="M131.3,112.57a.56.56,0,0,1-.5.62.57.57,0,0,1-.62-.5.58.58,0,0,1,.5-.62A.56.56,0,0,1,131.3,112.57Z"/><circle class="cls-6" cx="134.73" cy="126.32" r="0.56"/><path class="cls-6" d="M135.28,121.7a.56.56,0,0,1-1.11.11.56.56,0,0,1,.5-.61A.55.55,0,0,1,135.28,121.7Z"/><path class="cls-6" d="M135.28,117.14a.55.55,0,0,1-.5.61.56.56,0,0,1-.61-.5.55.55,0,0,1,.5-.61A.55.55,0,0,1,135.28,117.14Z"/><path class="cls-6" d="M135.28,108a.56.56,0,1,1-.61-.5A.55.55,0,0,1,135.28,108Z"/><path class="cls-6" d="M135.28,112.57a.56.56,0,1,1-1.11.12.57.57,0,0,1,.5-.62A.55.55,0,0,1,135.28,112.57Z"/><path class="cls-6" d="M138.24,125.76a.56.56,0,1,1-.56.56A.56.56,0,0,1,138.24,125.76Z"/><path class="cls-6" d="M138.79,121.7a.56.56,0,0,1-1.11.11.56.56,0,0,1,.5-.61A.55.55,0,0,1,138.79,121.7Z"/><path class="cls-6" d="M138.79,117.14a.55.55,0,0,1-.5.61.56.56,0,0,1-.61-.5.55.55,0,0,1,.5-.61A.55.55,0,0,1,138.79,117.14Z"/><path class="cls-6" d="M138.79,108a.56.56,0,1,1-.61-.5A.55.55,0,0,1,138.79,108Z"/><path class="cls-6" d="M138.79,112.57a.56.56,0,1,1-1.11.12.57.57,0,0,1,.5-.62A.55.55,0,0,1,138.79,112.57Z"/><path class="cls-6" d="M142.22,125.76a.56.56,0,1,1-.56.56A.56.56,0,0,1,142.22,125.76Z"/><path class="cls-6" d="M142.78,121.7a.55.55,0,0,1-.5.61.56.56,0,1,1,.5-.61Z"/><path class="cls-6" d="M142.78,117.14a.56.56,0,0,1-.5.61.57.57,0,0,1-.62-.5.56.56,0,0,1,1.12-.11Z"/><path class="cls-6" d="M142.78,108a.57.57,0,0,1-.5.62.58.58,0,0,1-.62-.5.56.56,0,0,1,1.12-.12Z"/><path class="cls-6" d="M142.78,112.57a.56.56,0,0,1-.5.62.56.56,0,1,1-.12-1.12A.56.56,0,0,1,142.78,112.57Z"/><path class="cls-6" d="M146.46,125.76a.56.56,0,1,1-.56.56A.56.56,0,0,1,146.46,125.76Z"/><path class="cls-6" d="M147,121.7a.55.55,0,0,1-.5.61.56.56,0,1,1,.5-.61Z"/><path class="cls-6" d="M147,117.14a.56.56,0,0,1-.5.61.57.57,0,0,1-.62-.5.56.56,0,0,1,1.12-.11Z"/><path class="cls-6" d="M147,108a.57.57,0,0,1-.5.62.58.58,0,0,1-.62-.5.57.57,0,0,1,.5-.62A.56.56,0,0,1,147,108Z"/><path class="cls-6" d="M147,112.57a.56.56,0,0,1-.5.62.57.57,0,0,1-.62-.5.58.58,0,0,1,.5-.62A.56.56,0,0,1,147,112.57Z"/><circle class="cls-6" cx="150.45" cy="126.32" r="0.56"/><path class="cls-6" d="M151,121.7a.55.55,0,0,1-.49.61.56.56,0,1,1,.49-.61Z"/><path class="cls-6" d="M151,117.14a.55.55,0,0,1-.49.61.56.56,0,0,1-.62-.5.55.55,0,0,1,.5-.61A.55.55,0,0,1,151,117.14Z"/><path class="cls-6" d="M151,108a.56.56,0,0,1-.49.62.57.57,0,0,1-.62-.5.56.56,0,0,1,.5-.62A.55.55,0,0,1,151,108Z"/><path class="cls-6" d="M151,112.57a.56.56,0,0,1-.49.62.56.56,0,0,1-.62-.5.57.57,0,0,1,.5-.62A.55.55,0,0,1,151,112.57Z"/><path class="cls-6" d="M157.5,104.07a.56.56,0,0,1,0,1.12.56.56,0,1,1,0-1.12Z"/><path class="cls-6" d="M158.05,100a.56.56,0,1,1-.61-.5A.55.55,0,0,1,158.05,100Z"/><path class="cls-6" d="M158.05,95.45a.56.56,0,0,1-1.11.11.56.56,0,0,1,.5-.61A.55.55,0,0,1,158.05,95.45Z"/><path class="cls-6" d="M158.05,86.32a.56.56,0,1,1-1.11.12.56.56,0,0,1,.5-.62A.55.55,0,0,1,158.05,86.32Z"/><path class="cls-6" d="M158.05,90.88a.56.56,0,1,1-1.11.12.57.57,0,0,1,.5-.62A.56.56,0,0,1,158.05,90.88Z"/><path class="cls-6" d="M161.48,104.07a.56.56,0,1,1-.56.56A.56.56,0,0,1,161.48,104.07Z"/><path class="cls-6" d="M162,100a.56.56,0,0,1-1.12.12A.56.56,0,0,1,162,100Z"/><path class="cls-6" d="M162,95.45a.56.56,0,0,1-1.12.11.56.56,0,0,1,1.12-.11Z"/><path class="cls-6" d="M162,86.32a.56.56,0,1,1-.62-.5A.56.56,0,0,1,162,86.32Z"/><path class="cls-6" d="M162,90.88a.56.56,0,0,1-1.12.12.56.56,0,1,1,1.12-.12Z"/><path class="cls-6" d="M165.72,104.07a.56.56,0,1,1-.56.56A.56.56,0,0,1,165.72,104.07Z"/><path class="cls-6" d="M166.28,100a.57.57,0,0,1-.5.62.58.58,0,0,1-.62-.5.57.57,0,0,1,.5-.62A.56.56,0,0,1,166.28,100Z"/><path class="cls-6" d="M166.28,95.45a.55.55,0,0,1-.5.61.56.56,0,1,1,.5-.61Z"/><path class="cls-6" d="M166.28,86.32a.56.56,0,0,1-.5.62.56.56,0,0,1-.12-1.12A.56.56,0,0,1,166.28,86.32Z"/><path class="cls-6" d="M166.28,90.88a.56.56,0,0,1-.5.62.57.57,0,0,1-.62-.5.58.58,0,0,1,.5-.62A.57.57,0,0,1,166.28,90.88Z"/><path class="cls-6" d="M169.71,104.07a.56.56,0,1,1-.56.56A.56.56,0,0,1,169.71,104.07Z"/><path class="cls-6" d="M170.26,100a.56.56,0,1,1-.61-.5A.55.55,0,0,1,170.26,100Z"/><path class="cls-6" d="M170.26,95.45a.56.56,0,0,1-1.11.11.56.56,0,0,1,.5-.61A.55.55,0,0,1,170.26,95.45Z"/><path class="cls-6" d="M170.26,86.32a.56.56,0,1,1-1.11.12.56.56,0,0,1,.5-.62A.55.55,0,0,1,170.26,86.32Z"/><path class="cls-6" d="M170.26,90.88a.56.56,0,1,1-1.11.12.57.57,0,0,1,.5-.62A.56.56,0,0,1,170.26,90.88Z"/><path class="cls-6" d="M173.22,104.07a.56.56,0,1,1-.56.56A.56.56,0,0,1,173.22,104.07Z"/><path class="cls-6" d="M173.77,100a.56.56,0,1,1-.61-.5A.55.55,0,0,1,173.77,100Z"/><path class="cls-6" d="M173.77,95.45a.56.56,0,0,1-1.11.11.56.56,0,0,1,.5-.61A.55.55,0,0,1,173.77,95.45Z"/><path class="cls-6" d="M173.77,86.32a.56.56,0,1,1-1.11.12.56.56,0,0,1,.5-.62A.55.55,0,0,1,173.77,86.32Z"/><path class="cls-6" d="M173.77,90.88a.56.56,0,1,1-1.11.12.57.57,0,0,1,.5-.62A.56.56,0,0,1,173.77,90.88Z"/><path class="cls-6" d="M177.2,104.07a.56.56,0,1,1-.56.56A.56.56,0,0,1,177.2,104.07Z"/><path class="cls-6" d="M177.76,100a.56.56,0,0,1-1.12.12.56.56,0,1,1,1.12-.12Z"/><path class="cls-6" d="M177.76,95.45a.56.56,0,0,1-1.12.11.56.56,0,0,1,1.12-.11Z"/><path class="cls-6" d="M177.76,86.32a.56.56,0,1,1-.62-.5A.56.56,0,0,1,177.76,86.32Z"/><path class="cls-6" d="M177.76,90.88a.56.56,0,0,1-1.12.12.56.56,0,1,1,1.12-.12Z"/><path class="cls-6" d="M181.44,104.07a.56.56,0,1,1-.56.56A.56.56,0,0,1,181.44,104.07Z"/><path class="cls-6" d="M182,100a.57.57,0,0,1-.5.62.58.58,0,0,1-.62-.5.57.57,0,0,1,.5-.62A.56.56,0,0,1,182,100Z"/><path class="cls-6" d="M182,95.45a.55.55,0,0,1-.5.61.56.56,0,1,1,.5-.61Z"/><path class="cls-6" d="M182,86.32a.56.56,0,0,1-.5.62.56.56,0,0,1-.12-1.12A.56.56,0,0,1,182,86.32Z"/><path class="cls-6" d="M182,90.88a.56.56,0,0,1-.5.62.57.57,0,0,1-.62-.5.58.58,0,0,1,.5-.62A.57.57,0,0,1,182,90.88Z"/><path class="cls-6" d="M185.43,104.07a.56.56,0,1,1-.56.56A.56.56,0,0,1,185.43,104.07Z"/><path class="cls-6" d="M186,100a.56.56,0,0,1-.49.62.57.57,0,0,1-.62-.5.56.56,0,0,1,.5-.62A.55.55,0,0,1,186,100Z"/><path class="cls-6" d="M186,95.45a.55.55,0,0,1-.49.61.56.56,0,1,1,.49-.61Z"/><path class="cls-6" d="M186,86.32a.56.56,0,0,1-.49.62.56.56,0,0,1-.12-1.12A.55.55,0,0,1,186,86.32Z"/><path class="cls-6" d="M186,90.88a.56.56,0,0,1-.49.62.56.56,0,0,1-.62-.5.57.57,0,0,1,.5-.62A.56.56,0,0,1,186,90.88Z"/><path class="cls-6" d="M124.61,104.07a.56.56,0,1,1-.56.56A.56.56,0,0,1,124.61,104.07Z"/><path class="cls-6" d="M125.17,100a.58.58,0,0,1-.5.62.57.57,0,0,1-.62-.5.56.56,0,0,1,.5-.62A.57.57,0,0,1,125.17,100Z"/><path class="cls-6" d="M125.17,95.45a.56.56,0,1,1-.62-.5A.57.57,0,0,1,125.17,95.45Z"/><path class="cls-6" d="M125.17,86.32a.57.57,0,0,1-.5.62.56.56,0,1,1-.12-1.12A.57.57,0,0,1,125.17,86.32Z"/><path class="cls-6" d="M125.17,90.88a.57.57,0,0,1-.5.62.56.56,0,0,1-.62-.5.57.57,0,0,1,.5-.62A.58.58,0,0,1,125.17,90.88Z"/><path class="cls-6" d="M128.59,104.07a.56.56,0,1,1-.56.56A.56.56,0,0,1,128.59,104.07Z"/><path class="cls-6" d="M129.15,100a.57.57,0,0,1-.5.62.58.58,0,0,1-.62-.5.57.57,0,0,1,.5-.62A.56.56,0,0,1,129.15,100Z"/><path class="cls-6" d="M129.15,95.45a.55.55,0,0,1-.5.61.56.56,0,1,1,.5-.61Z"/><path class="cls-6" d="M129.15,86.32a.56.56,0,0,1-.5.62.56.56,0,1,1-.12-1.12A.56.56,0,0,1,129.15,86.32Z"/><path class="cls-6" d="M129.15,90.88a.56.56,0,0,1-.5.62A.57.57,0,0,1,128,91a.58.58,0,0,1,.5-.62A.57.57,0,0,1,129.15,90.88Z"/><path class="cls-6" d="M132.83,104.07a.56.56,0,1,1,0,1.12.56.56,0,0,1,0-1.12Z"/><path class="cls-6" d="M133.39,100a.57.57,0,0,1-.5.62.56.56,0,1,1,.5-.62Z"/><path class="cls-6" d="M133.39,95.45a.55.55,0,0,1-.5.61.56.56,0,0,1-.11-1.11A.56.56,0,0,1,133.39,95.45Z"/><path class="cls-6" d="M133.39,86.32a.56.56,0,0,1-.5.62.56.56,0,0,1-.11-1.12A.56.56,0,0,1,133.39,86.32Z"/><path class="cls-6" d="M133.39,90.88a.56.56,0,0,1-.5.62.55.55,0,0,1-.61-.5.56.56,0,1,1,1.11-.12Z"/><path class="cls-6" d="M136.82,104.07a.56.56,0,1,1-.56.56A.56.56,0,0,1,136.82,104.07Z"/><path class="cls-6" d="M137.38,100a.56.56,0,0,1-1.12.12.56.56,0,0,1,.5-.62A.57.57,0,0,1,137.38,100Z"/><path class="cls-6" d="M137.38,95.45a.56.56,0,0,1-1.12.11.56.56,0,0,1,.5-.61A.57.57,0,0,1,137.38,95.45Z"/><path class="cls-6" d="M137.38,86.32a.56.56,0,1,1-.62-.5A.57.57,0,0,1,137.38,86.32Z"/><path class="cls-6" d="M137.38,90.88a.56.56,0,1,1-1.12.12.57.57,0,0,1,.5-.62A.58.58,0,0,1,137.38,90.88Z"/><path class="cls-6" d="M140.33,104.07a.56.56,0,1,1-.56.56A.56.56,0,0,1,140.33,104.07Z"/><path class="cls-6" d="M140.89,100a.56.56,0,1,1-1.12.12.56.56,0,0,1,.5-.62A.57.57,0,0,1,140.89,100Z"/><path class="cls-6" d="M140.89,95.45a.56.56,0,0,1-1.12.11.56.56,0,0,1,.5-.61A.57.57,0,0,1,140.89,95.45Z"/><path class="cls-6" d="M140.89,86.32a.56.56,0,1,1-.62-.5A.57.57,0,0,1,140.89,86.32Z"/><path class="cls-6" d="M140.89,90.88a.56.56,0,1,1-1.12.12.57.57,0,0,1,.5-.62A.58.58,0,0,1,140.89,90.88Z"/><path class="cls-6" d="M144.31,104.07a.56.56,0,1,1-.56.56A.56.56,0,0,1,144.31,104.07Z"/><path class="cls-6" d="M144.87,100a.57.57,0,0,1-.5.62.56.56,0,1,1,.5-.62Z"/><path class="cls-6" d="M144.87,95.45a.55.55,0,0,1-.5.61.56.56,0,0,1-.11-1.11A.56.56,0,0,1,144.87,95.45Z"/><path class="cls-6" d="M144.87,86.32a.56.56,0,0,1-.5.62.56.56,0,0,1-.11-1.12A.56.56,0,0,1,144.87,86.32Z"/><path class="cls-6" d="M144.87,90.88a.56.56,0,0,1-.5.62.55.55,0,0,1-.61-.5.56.56,0,1,1,1.11-.12Z"/><path class="cls-6" d="M148.56,104.07a.56.56,0,1,1-.57.56A.57.57,0,0,1,148.56,104.07Z"/><path class="cls-6" d="M149.11,100a.56.56,0,1,1-.61-.5A.55.55,0,0,1,149.11,100Z"/><path class="cls-6" d="M149.11,95.45a.56.56,0,0,1-1.11.11.56.56,0,0,1,.5-.61A.55.55,0,0,1,149.11,95.45Z"/><path class="cls-6" d="M149.11,86.32a.56.56,0,1,1-1.11.12.56.56,0,0,1,.5-.62A.55.55,0,0,1,149.11,86.32Z"/><path class="cls-6" d="M149.11,90.88A.56.56,0,1,1,148,91a.57.57,0,0,1,.5-.62A.56.56,0,0,1,149.11,90.88Z"/><path class="cls-6" d="M152.54,104.07a.56.56,0,1,1-.56.56A.56.56,0,0,1,152.54,104.07Z"/><path class="cls-6" d="M153.1,100a.56.56,0,0,1-1.12.12.56.56,0,0,1,1.12-.12Z"/><path class="cls-6" d="M153.1,95.45a.56.56,0,0,1-1.12.11.56.56,0,0,1,1.12-.11Z"/><path class="cls-6" d="M153.1,86.32a.56.56,0,1,1-.62-.5A.56.56,0,0,1,153.1,86.32Z"/><path class="cls-6" d="M153.1,90.88A.56.56,0,1,1,152,91a.56.56,0,0,1,1.12-.12Z"/></g></g><path class="cls-7" d="M257.09,209.94a8.44,8.44,0,0,1-7.15-3.93h0a8.46,8.46,0,1,1,7.15,3.93Zm-6.34-4.45a7.48,7.48,0,1,0,2.33-10.31,7.49,7.49,0,0,0-2.33,10.31Z"/><path class="cls-7" d="M265.79,215.29l-.52-.82a15.34,15.34,0,1,0-21.16-4.78l-.82.52a16.31,16.31,0,1,1,22.5,5.08Z"/><path class="cls-7" d="M257.14,228.43a26.93,26.93,0,1,1,22.7-41.31l-.81.52a26,26,0,1,0-16.57,39.26l.2.95A26.62,26.62,0,0,1,257.14,228.43Z"/><path class="cls-7" d="M257.13,235.22a33.73,33.73,0,0,1-33.73-35.67l1,.06a32.78,32.78,0,1,0,15.22-25.81l-.52-.82a33.73,33.73,0,1,1,18.07,62.24Z"/><path class="cls-8" d="M27.89,199.54a7.92,7.92,0,0,1-6.53-3.37l-.57-.81a7.07,7.07,0,0,0-11.53,0L8.8,196a7.9,7.9,0,0,1-6.52,3.38A7.9,7.9,0,0,1-4.25,196l-.64-.92a7,7,0,0,0-5.77-3,7,7,0,0,0-5.77,3l-.34.48a7.9,7.9,0,0,1-6.52,3.37,7.92,7.92,0,0,1-6.53-3.37l-.25-.36a7,7,0,0,0-5.77-3,7,7,0,0,0-5.77,3l-.89,1.25-.76-.54.89-1.25a7.9,7.9,0,0,1,6.53-3.38,7.92,7.92,0,0,1,6.52,3.38l.26.36a7,7,0,0,0,5.77,3,7,7,0,0,0,5.77-3l.33-.47a7.9,7.9,0,0,1,6.53-3.38,7.9,7.9,0,0,1,6.52,3.38l.65.91a7,7,0,0,0,5.77,3,7,7,0,0,0,5.77-3l.45-.63a8,8,0,0,1,13.05,0l.57.8a7.06,7.06,0,0,0,11.54,0l1-1.47a8,8,0,0,1,13,0,7.06,7.06,0,0,0,11.54,0l.86-1.22a8,8,0,0,1,13.05,0l1.67,2.36a7.08,7.08,0,0,0,11.54,0l.62-.87.75.54-.61.86a8,8,0,0,1-13.06,0l-1.66-2.35a7.06,7.06,0,0,0-11.54,0l-.86,1.22a8,8,0,0,1-13.06,0,7.06,7.06,0,0,0-11.54,0l-1,1.47A7.92,7.92,0,0,1,27.89,199.54Z"/><path class="cls-8" d="M27.89,210.92a7.9,7.9,0,0,1-6.53-3.38l-.57-.8a7.05,7.05,0,0,0-11.53,0l-.46.63a7.87,7.87,0,0,1-6.52,3.38,7.9,7.9,0,0,1-6.53-3.38l-.64-.91a7,7,0,0,0-5.77-3,7,7,0,0,0-5.77,3l-.34.47a7.88,7.88,0,0,1-6.52,3.38,7.9,7.9,0,0,1-6.53-3.38l-.25-.36a7,7,0,0,0-5.77-3,7,7,0,0,0-5.77,3l-.89,1.26-.76-.54.89-1.25a7.9,7.9,0,0,1,6.53-3.38A7.9,7.9,0,0,1-29.32,206l.26.36a7,7,0,0,0,5.77,3,7,7,0,0,0,5.77-3l.33-.47a7.9,7.9,0,0,1,6.53-3.38,7.9,7.9,0,0,1,6.52,3.38l.65.91a7,7,0,0,0,5.77,3,7,7,0,0,0,5.77-3l.45-.64a8,8,0,0,1,13.05,0l.57.81a7.08,7.08,0,0,0,11.54,0l1-1.47a8,8,0,0,1,13,0,7.08,7.08,0,0,0,11.54,0l.86-1.22a8,8,0,0,1,13.05,0l1.67,2.35a7.06,7.06,0,0,0,11.54,0l.62-.87.75.54-.61.87a8,8,0,0,1-13.06,0l-1.66-2.36a7.08,7.08,0,0,0-11.54,0l-.86,1.22a8,8,0,0,1-13.06,0,7.08,7.08,0,0,0-11.54,0l-1,1.47A7.9,7.9,0,0,1,27.89,210.92Z"/></svg>